<svg width="97" height="51" viewBox="0 0 97 51" fill="none" xmlns="http://www.w3.org/2000/svg">
<path d="M10.3509 34.18C8.95889 34.18 7.38689 34.06 5.63489 33.82C4.67489 33.7 4.01489 33.448 3.65489 33.064C3.29489 32.68 3.13889 32.056 3.18689 31.192C3.35489 28.816 3.75089 25.888 4.37489 22.408C4.99889 18.904 5.75489 15.532 6.64289 12.292C6.81089 11.692 7.14689 11.272 7.65089 11.032C8.15489 10.792 8.81489 10.672 9.63089 10.672C11.0949 10.672 11.8269 11.08 11.8269 11.896C11.8269 12.232 11.7549 12.616 11.6109 13.048C10.9869 14.968 10.3629 17.548 9.73889 20.788C9.11489 24.004 8.67089 27.076 8.40689 30.004C9.12689 30.076 9.94289 30.112 10.8549 30.112C15.0549 30.112 18.1869 28.84 20.2509 26.296C22.3389 23.752 23.3829 20.356 23.3829 16.108C23.3829 13.252 22.5669 11.044 20.9349 9.484C19.3029 7.924 16.9989 7.144 14.0229 7.144C12.1029 7.144 10.1949 7.444 8.29889 8.044C6.42689 8.644 4.73489 9.436 3.22289 10.42C2.91089 10.636 2.57489 10.744 2.21489 10.744C1.80689 10.744 1.48289 10.576 1.24289 10.24C1.00289 9.88 0.88289 9.448 0.88289 8.944C0.88289 8.368 0.97889 7.9 1.17089 7.54C1.36289 7.156 1.68689 6.808 2.14289 6.496C3.79889 5.368 5.74289 4.516 7.97489 3.94C10.2069 3.34 12.3549 3.04 14.4189 3.04C17.3469 3.04 19.8789 3.556 22.0149 4.588C24.1509 5.596 25.7949 7.084 26.9469 9.052C28.0989 11.02 28.6749 13.396 28.6749 16.18C28.6749 19.804 27.9549 22.972 26.5149 25.684C25.0749 28.372 22.9749 30.46 20.2149 31.948C17.4549 33.436 14.1669 34.18 10.3509 34.18ZM38.4095 34.18C36.9215 34.18 35.7335 33.64 34.8455 32.56C33.9575 31.48 33.5135 30.064 33.5135 28.312C33.5135 26.392 33.9575 24.58 34.8455 22.876C35.7335 21.148 36.9095 19.768 38.3735 18.736C39.8615 17.68 41.4335 17.152 43.0895 17.152C43.6175 17.152 43.9655 17.26 44.1335 17.476C44.3255 17.668 44.4815 18.028 44.6015 18.556C45.1055 18.46 45.6335 18.412 46.1855 18.412C47.3615 18.412 47.9495 18.832 47.9495 19.672C47.9495 20.176 47.7695 21.376 47.4095 23.272C46.8575 26.032 46.5815 27.952 46.5815 29.032C46.5815 29.392 46.6655 29.68 46.8335 29.896C47.0255 30.112 47.2655 30.22 47.5535 30.22C48.0095 30.22 48.5615 29.932 49.2095 29.356C49.8575 28.756 50.7335 27.796 51.8375 26.476C52.1255 26.14 52.4495 25.972 52.8095 25.972C53.1215 25.972 53.3615 26.116 53.5295 26.404C53.7215 26.692 53.8175 27.088 53.8175 27.592C53.8175 28.552 53.5895 29.296 53.1335 29.824C52.1495 31.048 51.1055 32.08 50.0015 32.92C48.8975 33.76 47.8295 34.18 46.7975 34.18C46.0055 34.18 45.2735 33.916 44.6015 33.388C43.9535 32.836 43.4615 32.092 43.1255 31.156C41.8775 33.172 40.3055 34.18 38.4095 34.18ZM39.7055 30.544C40.2335 30.544 40.7375 30.232 41.2175 29.608C41.6975 28.984 42.0455 28.156 42.2615 27.124L43.5935 20.5C42.5855 20.524 41.6495 20.908 40.7855 21.652C39.9455 22.372 39.2735 23.332 38.7695 24.532C38.2655 25.732 38.0135 27.004 38.0135 28.348C38.0135 29.092 38.1575 29.644 38.4455 30.004C38.7575 30.364 39.1775 30.544 39.7055 30.544ZM59.2077 14.848C58.1997 14.848 57.4437 14.62 56.9397 14.164C56.4357 13.684 56.1837 13.024 56.1837 12.184C56.1837 11.344 56.5077 10.648 57.1557 10.096C57.8277 9.52 58.6557 9.232 59.6397 9.232C60.5277 9.232 61.2477 9.448 61.7997 9.88C62.3517 10.312 62.6277 10.924 62.6277 11.716C62.6277 12.676 62.3157 13.444 61.6917 14.02C61.0677 14.572 60.2397 14.848 59.2077 14.848ZM58.9197 34.18C57.3597 34.18 56.2197 33.628 55.4997 32.524C54.8037 31.42 54.4557 29.956 54.4557 28.132C54.4557 27.052 54.5877 25.672 54.8517 23.992C55.1397 22.288 55.4997 20.704 55.9317 19.24C56.1477 18.472 56.4357 17.944 56.7957 17.656C57.1557 17.368 57.7317 17.224 58.5237 17.224C59.7477 17.224 60.3597 17.632 60.3597 18.448C60.3597 19.048 60.1317 20.44 59.6757 22.624C59.0997 25.264 58.8117 27.052 58.8117 27.988C58.8117 28.708 58.9077 29.26 59.0997 29.644C59.2917 30.028 59.6157 30.22 60.0717 30.22C60.5037 30.22 61.0437 29.92 61.6917 29.32C62.3397 28.72 63.2037 27.772 64.2837 26.476C64.5717 26.14 64.8957 25.972 65.2557 25.972C65.5677 25.972 65.8077 26.116 65.9757 26.404C66.1677 26.692 66.2637 27.088 66.2637 27.592C66.2637 28.552 66.0357 29.296 65.5797 29.824C63.2037 32.728 60.9837 34.18 58.9197 34.18ZM80.5951 25.972C80.9071 25.972 81.1471 26.116 81.3151 26.404C81.5071 26.692 81.6031 27.088 81.6031 27.592C81.6031 28.552 81.3751 29.296 80.9191 29.824C79.8871 31.096 78.7591 32.14 77.5351 32.956C76.3351 33.772 74.9671 34.18 73.4311 34.18C71.3191 34.18 69.7471 33.22 68.7151 31.3C67.7071 29.38 67.2031 26.896 67.2031 23.848C67.2031 20.92 67.5751 17.584 68.3191 13.84C69.0871 10.096 70.2031 6.88 71.6671 4.192C73.1551 1.504 74.9191 0.159998 76.9591 0.159998C78.1111 0.159998 79.0111 0.699998 79.6591 1.78C80.3311 2.836 80.6671 4.36 80.6671 6.352C80.6671 9.208 79.8751 12.52 78.2911 16.288C76.7071 20.056 74.5591 23.788 71.8471 27.484C72.0151 28.468 72.2911 29.176 72.6751 29.608C73.0591 30.016 73.5631 30.22 74.1871 30.22C75.1711 30.22 76.0351 29.944 76.7791 29.392C77.5231 28.816 78.4711 27.844 79.6231 26.476C79.9111 26.14 80.2351 25.972 80.5951 25.972ZM76.1671 3.724C75.6151 3.724 74.9911 4.72 74.2951 6.712C73.5991 8.704 72.9871 11.176 72.4591 14.128C71.9311 17.08 71.6431 19.912 71.5951 22.624C73.2991 19.816 74.6551 17.008 75.6631 14.2C76.6711 11.368 77.1751 8.788 77.1751 6.46C77.1751 4.636 76.8391 3.724 76.1671 3.724ZM94.8932 17.224C95.4452 17.224 95.8292 17.296 96.0452 17.44C96.2612 17.584 96.3692 17.824 96.3692 18.16C96.3692 18.736 96.0572 20.788 95.4332 24.316C94.8812 27.7 94.5572 29.704 94.4612 30.328C93.5732 36.496 92.3492 41.38 90.7892 44.98C89.2292 48.58 87.1532 50.38 84.5612 50.38C83.3372 50.38 82.3412 49.996 81.5732 49.228C80.8052 48.484 80.4212 47.5 80.4212 46.276C80.4212 45.148 80.6732 43.996 81.1772 42.82C81.7052 41.644 82.6652 40.288 84.0572 38.752C85.4732 37.24 87.4652 35.5 90.0332 33.532L90.1412 32.704C90.3092 31.816 90.5012 30.544 90.7172 28.888C90.2372 30.616 89.5652 31.936 88.7012 32.848C87.8372 33.736 86.9252 34.18 85.9652 34.18C84.8852 34.18 83.9972 33.688 83.3012 32.704C82.6292 31.696 82.2932 30.448 82.2932 28.96C82.2932 27.16 82.4132 25.516 82.6532 24.028C82.8932 22.516 83.2892 20.92 83.8412 19.24C84.0812 18.52 84.4172 18.004 84.8492 17.692C85.2812 17.38 85.9652 17.224 86.9012 17.224C87.4292 17.224 87.7892 17.308 87.9812 17.476C88.1972 17.644 88.3052 17.896 88.3052 18.232C88.3052 18.424 88.1732 19.072 87.9092 20.176C87.6692 21.064 87.4772 21.868 87.3332 22.588C87.1412 23.572 86.9732 24.52 86.8292 25.432C86.6852 26.32 86.6132 27.052 86.6132 27.628C86.6132 28.54 86.8652 28.996 87.3692 28.996C87.7292 28.996 88.1732 28.636 88.7012 27.916C89.2532 27.196 89.8292 26.104 90.4292 24.64C91.0532 23.176 91.6532 21.376 92.2292 19.24C92.4212 18.52 92.7092 18.004 93.0932 17.692C93.5012 17.38 94.1012 17.224 94.8932 17.224ZM84.9572 46.888C85.5572 46.888 86.2292 46.192 86.9732 44.8C87.7172 43.408 88.4612 41.092 89.2052 37.852C87.3572 39.412 86.0132 40.828 85.1732 42.1C84.3572 43.396 83.9492 44.524 83.9492 45.484C83.9492 45.892 84.0212 46.228 84.1652 46.492C84.3332 46.756 84.5972 46.888 84.9572 46.888Z" fill="#DD6FD1"/>
</svg>

